<svg width="186" height="186" viewBox="0 0 186 186" fill="none" xmlns="http://www.w3.org/2000/svg">
<path d="M23.625 93H93V104.562H23.625V93ZM12.0625 64.0938H69.875V75.6562H12.0625V64.0938Z" fill="black"/>
<path d="M173.469 96.5034L156.125 56.0347C155.68 54.995 154.939 54.1088 153.994 53.4861C153.05 52.8634 151.944 52.5314 150.812 52.5312H133.469V40.9688C133.469 39.4355 132.86 37.965 131.775 36.8808C130.691 35.7966 129.221 35.1875 127.687 35.1875H35.1875V46.75H121.906V119.339C119.273 120.871 116.969 122.908 115.126 125.332C113.283 127.757 111.936 130.522 111.165 133.469H74.8353C73.4281 128.019 70.0817 123.27 65.4233 120.111C60.7649 116.952 55.1143 115.6 49.5307 116.309C43.9471 117.019 38.8138 119.74 35.0931 123.963C31.3723 128.186 29.3196 133.622 29.3196 139.25C29.3196 144.878 31.3723 150.314 35.0931 154.537C38.8138 158.76 43.9471 161.481 49.5307 162.191C55.1143 162.9 60.7649 161.548 65.4233 158.389C70.0817 155.23 73.4281 150.481 74.8353 145.031H111.165C112.422 149.993 115.298 154.394 119.338 157.537C123.378 160.681 128.35 162.387 133.469 162.387C138.587 162.387 143.56 160.681 147.599 157.537C151.639 154.394 154.515 149.993 155.773 145.031H168.156C169.689 145.031 171.16 144.422 172.244 143.338C173.328 142.254 173.937 140.783 173.937 139.25V98.7812C173.937 97.9981 173.778 97.2232 173.469 96.5034ZM52.5312 150.812C50.2444 150.812 48.0089 150.134 46.1074 148.864C44.206 147.593 42.724 145.788 41.8488 143.675C40.9737 141.562 40.7447 139.237 41.1909 136.994C41.637 134.751 42.7382 132.691 44.3553 131.074C45.9723 129.457 48.0326 128.356 50.2755 127.91C52.5184 127.464 54.8432 127.693 56.956 128.568C59.0687 129.443 60.8746 130.925 62.1451 132.826C63.4156 134.728 64.0937 136.963 64.0937 139.25C64.0937 142.317 62.8755 145.258 60.7071 147.426C58.5387 149.594 55.5978 150.812 52.5312 150.812ZM133.469 64.0938H146.997L159.392 93H133.469V64.0938ZM133.469 150.812C131.182 150.812 128.946 150.134 127.045 148.864C125.143 147.593 123.661 145.788 122.786 143.675C121.911 141.562 121.682 139.237 122.128 136.994C122.575 134.751 123.676 132.691 125.293 131.074C126.91 129.457 128.97 128.356 131.213 127.91C133.456 127.464 135.781 127.693 137.893 128.568C140.006 129.443 141.812 130.925 143.083 132.826C144.353 134.728 145.031 136.963 145.031 139.25C145.031 142.317 143.813 145.258 141.645 147.426C139.476 149.594 136.535 150.812 133.469 150.812ZM162.375 133.469H155.773C154.499 128.517 151.619 124.127 147.582 120.989C143.546 117.85 138.582 116.139 133.469 116.125V104.562H162.375V133.469Z" fill="black"/>
</svg>
