<svg width="188" height="189" viewBox="0 0 188 189" fill="none" xmlns="http://www.w3.org/2000/svg">
<path d="M141.47 180.667H154.473C161.053 180.667 166.458 175.575 167.242 169.152L180.167 40.0583H141V8.33333H125.568V40.0583H86.6366L88.9866 58.3883C102.382 62.07 114.915 68.7283 122.435 76.0917C133.715 87.215 141.47 98.73 141.47 117.53V180.667ZM7.83325 172.833V165H125.568V172.833C125.568 177.063 122.043 180.667 117.5 180.667H15.6666C11.3583 180.667 7.83325 177.063 7.83325 172.833ZM125.568 118C125.568 55.3333 7.83325 55.3333 7.83325 118H125.568ZM7.83325 133.667H125.333V149.333H7.83325V133.667Z" fill="black"/>
</svg>
